Coordinates
version=1
nRows=16
nColumns=22
inDegrees=yes

Units are S.I. units (second, meters, Newtons, ...)
If the header above contains a line with 'inDegrees', this indicates whether rotational values are in degrees (yes) or radians (no).

endheader
time	pelvis_tilt	pelvis_list	pelvis_rotation	pelvis_tx	pelvis_ty	pelvis_tz	hip_flexion_r	hip_adduction_r	hip_rotation_r	knee_angle_r	ankle_angle_r	subtalar_angle_r	hip_flexion_l	hip_adduction_l	hip_rotation_l	knee_angle_l	ankle_angle_l	subtalar_angle_l	lumbar_extension	lumbar_bending	lumbar_rotation
      3.70000000	     -2.82871951	      3.42637788	     30.05462052	     -0.45375750	      1.04833880	     -0.56778542	     27.96514728	     -2.74376263	    -19.74226227	    -21.87397159	     10.09538647	     -6.31022743	     -8.43353952	      2.72550342	     -6.36916429	    -11.93564835	     18.60369562	      1.54436665	     -5.40798244	     -3.06524357	    -11.45868624
      3.71000000	     -2.75623563	      3.29982307	     29.94783949	     -0.44551306	      1.04681215	     -0.57162113	     27.66199128	     -2.51233219	    -21.23009475	    -19.41802903	     10.16358069	     -6.10601346	     -8.81386589	      2.52119103	     -6.54278606	    -12.24621683	     18.85300252	      1.77138212	     -5.37851943	     -2.88090094	    -11.55023787
      3.72000000	     -2.67560187	      3.17306254	     29.84372961	     -0.43701555	      1.04532334	     -0.57538340	     27.33022689	     -2.23496199	    -22.61587204	    -17.11133363	     10.27106254	     -5.87539840	     -9.19703435	      2.29448632	     -6.69763878	    -12.58633558	     19.05268248	      2.07867962	     -5.34267767	     -2.69844714	    -11.62203449
      3.73000000	     -2.58354519	      3.04758347	     29.74574164	     -0.42825303	      1.04388326	     -0.57911658	     26.97548234	     -1.93175429	    -23.89785676	    -15.02123731	     10.40725372	     -5.66979059	     -9.58836277	      2.04602741	     -6.81433299	    -12.95689510	     19.19807982	      2.46455180	     -5.29931268	     -2.51083467	    -11.68202987
      3.74000000	     -2.53248621	      2.89564806	     29.67157495	     -0.41926894	      1.04240056	     -0.58284566	     26.68436746	     -1.63705159	    -25.10398197	    -13.24081906	     10.52714525	     -5.57399191	     -9.90051177	      1.77446651	     -6.86229649	    -13.40206869	     19.31300110	      2.80262764	     -5.18112141	     -2.31966291	    -11.74421158
      3.75000000	     -2.35046123	      2.80645545	     29.58229625	     -0.40988275	      1.04119136	     -0.58661150	     26.23646891	     -1.34287732	    -26.21912623	    -11.80668699	     10.73216724	     -5.55792555	    -10.41045355	      1.48066303	     -6.87507257	    -13.80178601	     19.31144409	      3.42387291	     -5.19318143	     -2.10974335	    -11.82920957
      3.76000000	     -2.18719124	      2.68416574	     29.50894744	     -0.40023010	      1.03999225	     -0.59042234	     25.87129699	     -1.08959350	    -27.36116007	    -10.84612598	     10.88003194	     -5.72492142	    -10.86863454	      1.15228208	     -6.80300230	    -14.26126710	     19.25239990	      4.02566793	     -5.13944251	     -1.87378085	    -11.89806790
      3.77000000	     -1.98848237	      2.54903771	     29.45052195	     -0.39028177	      1.03890980	     -0.59430019	     25.52318100	     -0.87879755	    -28.53680256	    -10.37471003	     10.98906128	     -6.06311421	    -11.34786828	      0.78204260	     -6.65039224	    -14.75842118	     19.12069196	      4.68039761	     -5.08224407	     -1.59584008	    -11.98840245
      3.78000000	     -1.75214186	      2.40015309	     29.40909528	     -0.38004479	      1.03796485	     -0.59825062	     25.18699635	     -0.71720573	    -29.75113217	    -10.38337213	     11.03920736	     -6.55877919	    -11.83832534	      0.36688653	     -6.43874373	    -15.31164556	     18.90618705	      5.40434709	     -5.02508646	     -1.27203923	    -12.11364150
      3.79000000	     -1.47477299	      2.22725613	     29.37726827	     -0.36950986	      1.03718193	     -0.60225273	     24.85629525	     -0.59015853	    -31.00201545	    -10.82476986	     10.97321911	     -7.18604804	    -12.34174938	     -0.09958409	     -6.16721720	    -15.91078189	     18.59845150	      6.20931126	     -4.96645362	     -0.89408716	    -12.26247898
      3.80000000	     -1.16158302	      2.02412898	     29.35625392	     -0.35870388	      1.03657881	     -0.60627536	     24.51552338	     -0.47779518	    -32.23683521	    -11.58641985	     10.75954072	     -7.89946463	    -12.83194061	     -0.62140154	     -5.85202842	    -16.58316635	     18.19284193	      7.10139400	     -4.90103001	     -0.46172364	    -12.43873801
      3.81000000	     -0.82660730	      1.77746772	     29.33151198	     -0.34764857	      1.03616747	     -0.61024808	     24.16683329	     -0.34248244	    -33.38326743	    -12.54110238	     10.39281072	     -8.64065547	    -13.27677296	     -1.20083535	     -5.51528173	    -17.34434191	     17.67126189	      8.08418008	     -4.81452775	      0.02588530	    -12.63563555
      3.82000000	     -0.47915461	      1.47308737	     29.29218756	     -0.33638800	      1.03597476	     -0.61409911	     23.80904468	     -0.13696454	    -34.34371792	    -13.55208092	      9.89542247	     -9.36113668	    -13.63887158	     -1.84531246	     -5.17722067	    -18.22430178	     17.01354975	      9.16815724	     -4.69844398	      0.57203462	    -12.85244670
      3.83000000	     -0.14197704	      1.10178992	     29.21993756	     -0.32498380	      1.03600211	     -0.61774538	     23.47029424	      0.17134635	    -35.03494361	    -14.52885001	      9.31226228	    -10.00319389	    -13.87366230	     -2.54567792	     -4.84708942	    -19.24792918	     16.22589867	     10.31331493	     -4.53669928	      1.17026312	    -13.07321051
      3.84000000	      0.16998184	      0.67985565	     29.07969231	     -0.31345725	      1.03628401	     -0.62107349	     23.14281237	      0.62070723	    -35.29529499	    -15.36540854	      8.72692028	    -10.59680408	    -13.96506353	     -3.27038987	     -4.52510102	    -20.42657815	     15.21042794	     11.62571399	     -4.33334806	      1.78356581	    -13.24682909
      3.85000000	      0.43842987	      0.23111040	     28.88025948	     -0.30190688	      1.03679859	     -0.62409004	     22.85436153	      1.17007716	    -35.16043699	    -16.08967100	      8.17987609	    -11.11198948	    -13.88153863	     -3.98934864	     -4.21072384	    -21.79321415	     14.01106299	     12.97013342	     -4.09700203	      2.38581232	    -13.42054252
